<?xml version="1.0" standalone="no"?>
<!DOCTYPE svg PUBLIC "-//W3C//DTD SVG 20010904//EN"
 "http://www.w3.org/TR/2001/REC-SVG-20010904/DTD/svg10.dtd">
<svg version="1.0" xmlns="http://www.w3.org/2000/svg"
 width="700.000000pt" height="700.000000pt" viewBox="0 0 700.000000 700.000000"
 preserveAspectRatio="xMidYMid meet">
<metadata>
Created by potrace 1.14, written by Peter Selinger 2001-2017
</metadata>
<g transform="translate(0.000000,700.000000) scale(0.100000,-0.100000)"
fill="#000000" stroke="none">
<path d="M3449 6016 c-19 -17 -46 -40 -60 -51 -335 -274 -664 -591 -924 -890
-231 -265 -554 -723 -703 -997 -16 -29 -46 -82 -66 -118 -38 -68 -185 -365
-228 -460 -14 -30 -35 -76 -47 -102 -11 -26 -21 -52 -21 -58 0 -7 -7 -24 -15
-38 -46 -84 -212 -545 -298 -832 -67 -221 -138 -471 -152 -536 -2 -10 -27
-111 -55 -224 -28 -113 -58 -234 -66 -270 -9 -36 -17 -71 -19 -77 -5 -16 189
-111 310 -151 178 -60 377 -105 645 -147 95 -14 122 -18 215 -30 98 -12 111
-14 180 -21 39 -3 84 -8 100 -10 17 -1 71 -6 120 -9 50 -3 100 -8 112 -10 13
-2 71 -7 130 -10 60 -4 135 -8 168 -10 356 -24 1192 -24 1390 0 17 2 75 6 130
10 120 8 167 12 231 19 27 3 72 8 99 11 56 6 72 8 240 30 66 9 131 18 145 21
14 2 41 7 60 10 34 5 275 50 315 58 11 3 54 12 95 21 41 9 84 18 95 21 98 19
606 174 623 189 2 1 -13 56 -32 121 -116 395 -141 481 -176 594 -174 565 -300
915 -467 1300 -86 197 -254 541 -312 638 -17 29 -31 55 -31 57 0 7 -148 252
-221 366 -120 186 -295 426 -431 590 -35 42 -72 88 -83 102 -11 13 -48 56 -83
95 -35 39 -75 83 -89 99 -136 151 -417 420 -622 594 -179 153 -160 143 -202
105z m-127 -1623 c-1 -576 -1 -1072 -2 -1101 l0 -52 -42 27 c-24 14 -203 121
-398 236 -195 116 -416 246 -490 290 -74 44 -149 88 -167 98 -32 18 -115 69
-122 75 -10 9 221 361 361 550 106 142 276 349 377 459 93 101 474 476 478
471 3 -3 5 -476 5 -1053z m774 602 c187 -211 389 -475 537 -700 116 -177 218
-347 214 -358 -1 -5 -25 -21 -52 -37 -28 -15 -290 -170 -583 -344 -294 -174
-536 -316 -538 -316 -2 0 -4 494 -4 1098 l0 1097 178 -180 c98 -99 209 -216
248 -260z m-2032 -1412 c50 -29 98 -58 106 -63 8 -5 59 -35 113 -67 54 -32
112 -66 128 -76 17 -9 119 -70 227 -134 566 -334 522 -306 501 -321 -10 -7
-89 -55 -176 -106 -87 -51 -365 -216 -618 -366 -253 -150 -473 -281 -490 -290
-16 -10 -156 -92 -309 -184 -154 -91 -281 -164 -282 -163 -2 1 20 83 47 182
28 99 52 188 54 197 18 80 174 552 250 758 60 162 189 459 265 610 48 95 52
100 72 89 12 -7 63 -36 112 -66z m3025 -95 c67 -141 231 -519 231 -533 0 -4 7
-21 15 -38 42 -92 189 -518 290 -842 26 -82 53 -169 60 -192 l14 -43 -27 14
c-27 14 -159 91 -567 333 -121 72 -236 140 -255 150 -19 11 -141 83 -270 160
-129 77 -336 200 -460 273 -124 73 -237 140 -251 149 l-27 16 167 98 c91 54
355 210 586 347 231 137 421 249 423 250 1 0 33 -64 71 -142z m-787 -1229
c326 -193 607 -359 623 -369 231 -133 615 -364 615 -369 0 -9 -148 -43 -371
-85 -193 -36 -223 -41 -304 -51 -27 -3 -61 -8 -75 -10 -14 -3 -47 -7 -75 -10
-27 -3 -66 -7 -85 -10 -19 -2 -57 -7 -85 -10 -27 -3 -68 -7 -90 -9 -138 -15
-418 -33 -647 -41 l-138 -5 0 670 c0 662 0 671 20 660 10 -6 286 -168 612
-361z m-979 -282 c-1 -353 -2 -652 -3 -664 0 -22 -1 -22 -142 -18 -168 5 -369
14 -453 20 -33 2 -98 7 -145 10 -88 5 -144 10 -265 21 -120 11 -239 24 -275
29 -14 2 -52 7 -85 10 -33 3 -67 8 -75 10 -8 3 -34 7 -57 10 -81 9 -231 38
-396 74 -33 7 -71 -18 383 251 146 86 339 201 430 255 172 103 364 215 415
245 17 9 100 59 185 110 85 51 173 103 195 115 22 13 92 55 155 93 63 39 120
71 125 71 7 1 9 -218 8 -642z"/>
</g>
</svg>
